<svg width="42" height="43" viewBox="0 0 42 43" fill="none" xmlns="http://www.w3.org/2000/svg">
<circle cx="21" cy="21.5" r="21" fill="#292642"/>
<path d="M15.1663 24C13.3247 24 11.833 25.4917 11.833 27.3334C11.833 27.9584 12.008 28.55 12.3163 29.05C12.8913 30.0167 13.9497 30.6667 15.1663 30.6667C16.383 30.6667 17.4413 30.0167 18.0163 29.05C18.3247 28.55 18.4997 27.9584 18.4997 27.3334C18.4997 25.4917 17.008 24 15.1663 24ZM16.408 27.9417H15.7913V28.5917C15.7913 28.9334 15.508 29.2167 15.1663 29.2167C14.8247 29.2167 14.5413 28.9334 14.5413 28.5917V27.9417H13.9247C13.583 27.9417 13.2997 27.6584 13.2997 27.3167C13.2997 26.975 13.583 26.6917 13.9247 26.6917H14.5413V26.1C14.5413 25.7584 14.8247 25.475 15.1663 25.475C15.508 25.475 15.7913 25.7584 15.7913 26.1V26.6917H16.408C16.7497 26.6917 17.033 26.975 17.033 27.3167C17.033 27.6584 16.758 27.9417 16.408 27.9417ZM28.9163 21.9167H26.833C25.9163 21.9167 25.1663 22.6667 25.1663 23.5834C25.1663 24.5 25.9163 25.25 26.833 25.25H28.9163C29.1497 25.25 29.333 25.0667 29.333 24.8334V22.3334C29.333 22.1 29.1497 21.9167 28.9163 21.9167ZM24.774 16.0002C25.024 16.2418 24.8157 16.6168 24.4657 16.6168L17.5657 16.6085C17.1657 16.6085 16.9657 16.1252 17.249 15.8418L18.7074 14.3752C19.9407 13.1502 21.9323 13.1502 23.1657 14.3752L24.7407 15.9668C24.749 15.9752 24.7657 15.9918 24.774 16.0002Z" fill="white"/>
<path d="M29.2245 27.05C28.7162 28.7667 27.2495 29.8334 25.2495 29.8334H19.8328C19.5078 29.8334 19.2995 29.475 19.4328 29.175C19.6828 28.5917 19.8412 27.9334 19.8412 27.3334C19.8412 24.8084 17.7828 22.75 15.2578 22.75C14.6245 22.75 14.0078 22.8834 13.4411 23.1334C13.1328 23.2667 12.7578 23.0584 12.7578 22.725V21.5C12.7578 19.2334 14.1245 17.65 16.2495 17.3834C16.4578 17.35 16.6828 17.3334 16.9161 17.3334H25.2495C25.4662 17.3334 25.6745 17.3417 25.8745 17.375C27.5578 17.5667 28.7745 18.5917 29.2245 20.1167C29.3078 20.3917 29.1078 20.6667 28.8245 20.6667H26.9162C25.1078 20.6667 23.6745 22.3167 24.0662 24.1917C24.3412 25.5584 25.6078 26.5 26.9995 26.5H28.8245C29.1162 26.5 29.3078 26.7834 29.2245 27.05Z" fill="white"/>
</svg>
